<?xml version="1.0" encoding="UTF-8"?>
<svg xmlns="http://www.w3.org/2000/svg" xmlns:xlink="http://www.w3.org/1999/xlink" width="512pt" height="512pt" viewBox="0 0 512 512" version="1.1">
<g id="surface1">
<path style=" stroke:none;fill-rule:nonzero;fill:rgb(0%,0%,0%);fill-opacity:1;" d="M 256 448 C 225.332031 448 197.332031 440.332031 172 425 C 146 409.667969 125.667969 389 111 363 C 95.667969 337 88 308.667969 88 278 L 88 256 L 136 256 L 136 280 C 136 314 147.667969 342.667969 171 366 C 194.332031 388.667969 223 400 257 400 C 278.332031 400 298.332031 394.667969 317 384 C 335 372.667969 349.332031 358 360 340 C 370.667969 322 376 302.332031 376 281 C 376 247 364.667969 218.332031 342 195 C 318.667969 171.667969 290 160 256 160 L 256 232 L 160 136 L 256 40 L 256 112 C 287.332031 112 315.667969 119.332031 341 134 C 366.332031 149.332031 386.667969 170 402 196 C 416.667969 221.332031 424 249.332031 424 280 C 424 311.332031 416.667969 339.332031 402 364 C 387.332031 390 367 410.667969 341 426 C 314.332031 440.667969 286 448 256 448 Z M 256 448 "/>
</g>
</svg>
